<svg xmlns="http://www.w3.org/2000/svg" xmlns:xlink="http://www.w3.org/1999/xlink" width="512" height="512"
  viewBox="0 0 512 512">
  <defs>
    <clipPath id="a">
      <rect width="349" height="318" fill="none" />
    </clipPath>
    <clipPath id="c">
      <rect width="512" height="512" />
    </clipPath>
  </defs>
  <g id="b" clip-path="url(#c)">
    <rect width="480" height="480" rx="88" transform="translate(16 16)" fill="#3b82f6" />
    <g transform="translate(82 97)" opacity="0.3" clip-path="url(#a)">
      <g transform="translate(-94 -135)">
        <rect width="349" height="23" rx="11.5" transform="translate(94 135)" fill="#fff" />
      </g>
      <g transform="translate(-94 -76)">
        <rect width="349" height="23" rx="11.5" transform="translate(94 135)" fill="#fff" />
      </g>
      <g transform="translate(-94 -17)">
        <rect width="349" height="23" rx="11.5" transform="translate(94 135)" fill="#fff" />
      </g>
      <g transform="translate(-94 42)">
        <rect width="349" height="23" rx="11.5" transform="translate(94 135)" fill="#fff" />
      </g>
      <g transform="translate(-94 101)">
        <rect width="349" height="23" rx="11.5" transform="translate(94 135)" fill="#fff" />
      </g>
      <g transform="translate(-94 160)">
        <rect width="349" height="23" rx="11.5" transform="translate(94 135)" fill="#fff" />
      </g>
    </g>
    <path
      d="M104.143,58.591V-250.8h60.941V35.642H324.124V58.591Z"
      transform="translate(88.3 351.8)" fill="#fff" />
  </g>
</svg>